<mxfile host="app.diagrams.net" modified="2022-07-29T19:49:04.363Z" agent="5.0 (Windows NT 10.0; Win64; x64) AppleWebKit/537.36 (KHTML, like Gecko) Chrome/103.0.0.0 Safari/537.36" etag="c_rILTnFjNp_XV5Ox2YV" version="20.2.0" type="github">
  <diagram id="1Nn1wqpXPVA6bw1gUXar" name="Página-1">
    <mxGraphModel dx="1422" dy="804" grid="1" gridSize="10" guides="1" tooltips="1" connect="1" arrows="1" fold="1" page="1" pageScale="1" pageWidth="827" pageHeight="1169" math="0" shadow="0">
      <root>
        <mxCell id="0" />
        <mxCell id="1" parent="0" />
        <mxCell id="bDGak_FL8hJ-bUdDiGQP-1" value="administrativo" style="whiteSpace=wrap;html=1;aspect=fixed;" parent="1" vertex="1">
          <mxGeometry x="110" y="153" width="100" height="100" as="geometry" />
        </mxCell>
        <mxCell id="bDGak_FL8hJ-bUdDiGQP-2" value="portal" style="whiteSpace=wrap;html=1;aspect=fixed;" parent="1" vertex="1">
          <mxGeometry x="450" y="153" width="100" height="100" as="geometry" />
        </mxCell>
        <mxCell id="bDGak_FL8hJ-bUdDiGQP-3" value="API - adm" style="whiteSpace=wrap;html=1;aspect=fixed;" parent="1" vertex="1">
          <mxGeometry x="120" y="323" width="90" height="90" as="geometry" />
        </mxCell>
        <mxCell id="bDGak_FL8hJ-bUdDiGQP-4" value="API - portal" style="whiteSpace=wrap;html=1;aspect=fixed;" parent="1" vertex="1">
          <mxGeometry x="470" y="323" width="80" height="80" as="geometry" />
        </mxCell>
        <mxCell id="bDGak_FL8hJ-bUdDiGQP-6" value="Serverbus venda" style="shape=dataStorage;whiteSpace=wrap;html=1;fixedSize=1;" parent="1" vertex="1">
          <mxGeometry x="260" y="468" width="170" height="80" as="geometry" />
        </mxCell>
        <mxCell id="bDGak_FL8hJ-bUdDiGQP-7" value="" style="endArrow=classic;html=1;rounded=0;entryX=0.5;entryY=0.063;entryDx=0;entryDy=0;entryPerimeter=0;" parent="1" source="bDGak_FL8hJ-bUdDiGQP-3" target="bDGak_FL8hJ-bUdDiGQP-6" edge="1">
          <mxGeometry width="50" height="50" relative="1" as="geometry">
            <mxPoint x="250" y="413" as="sourcePoint" />
            <mxPoint x="300" y="363" as="targetPoint" />
            <Array as="points">
              <mxPoint x="270" y="373" />
            </Array>
          </mxGeometry>
        </mxCell>
        <mxCell id="bDGak_FL8hJ-bUdDiGQP-9" value="event venda" style="edgeLabel;html=1;align=center;verticalAlign=middle;resizable=0;points=[];" parent="bDGak_FL8hJ-bUdDiGQP-7" vertex="1" connectable="0">
          <mxGeometry x="-0.217" y="-2" relative="1" as="geometry">
            <mxPoint as="offset" />
          </mxGeometry>
        </mxCell>
        <mxCell id="bDGak_FL8hJ-bUdDiGQP-8" value="" style="endArrow=classic;html=1;rounded=0;exitX=0.75;exitY=0;exitDx=0;exitDy=0;entryX=0.5;entryY=1;entryDx=0;entryDy=0;" parent="1" source="bDGak_FL8hJ-bUdDiGQP-6" target="bDGak_FL8hJ-bUdDiGQP-4" edge="1">
          <mxGeometry width="50" height="50" relative="1" as="geometry">
            <mxPoint x="250" y="413" as="sourcePoint" />
            <mxPoint x="300" y="363" as="targetPoint" />
          </mxGeometry>
        </mxCell>
        <mxCell id="bDGak_FL8hJ-bUdDiGQP-10" value="notif de novo curso" style="edgeLabel;html=1;align=center;verticalAlign=middle;resizable=0;points=[];" parent="bDGak_FL8hJ-bUdDiGQP-8" vertex="1" connectable="0">
          <mxGeometry x="0.1483" relative="1" as="geometry">
            <mxPoint as="offset" />
          </mxGeometry>
        </mxCell>
        <mxCell id="bDGak_FL8hJ-bUdDiGQP-11" value="" style="shape=cylinder3;whiteSpace=wrap;html=1;boundedLbl=1;backgroundOutline=1;size=15;" parent="1" vertex="1">
          <mxGeometry x="130" y="503" width="60" height="80" as="geometry" />
        </mxCell>
        <mxCell id="bDGak_FL8hJ-bUdDiGQP-12" value="" style="shape=cylinder3;whiteSpace=wrap;html=1;boundedLbl=1;backgroundOutline=1;size=15;" parent="1" vertex="1">
          <mxGeometry x="480" y="503" width="60" height="80" as="geometry" />
        </mxCell>
        <mxCell id="bDGak_FL8hJ-bUdDiGQP-13" value="" style="shape=flexArrow;endArrow=classic;startArrow=classic;html=1;rounded=0;entryX=0.5;entryY=1;entryDx=0;entryDy=0;" parent="1" target="bDGak_FL8hJ-bUdDiGQP-3" edge="1">
          <mxGeometry width="100" height="100" relative="1" as="geometry">
            <mxPoint x="165" y="503" as="sourcePoint" />
            <mxPoint x="215" y="423" as="targetPoint" />
          </mxGeometry>
        </mxCell>
        <mxCell id="bDGak_FL8hJ-bUdDiGQP-18" value="" style="endArrow=classic;html=1;rounded=0;entryX=1;entryY=0.25;entryDx=0;entryDy=0;" parent="1" target="bDGak_FL8hJ-bUdDiGQP-3" edge="1">
          <mxGeometry width="50" height="50" relative="1" as="geometry">
            <mxPoint x="460" y="346" as="sourcePoint" />
            <mxPoint x="520" y="363" as="targetPoint" />
          </mxGeometry>
        </mxCell>
        <mxCell id="bDGak_FL8hJ-bUdDiGQP-19" value="busca curso liberado - JOB" style="edgeLabel;html=1;align=center;verticalAlign=middle;resizable=0;points=[];" parent="bDGak_FL8hJ-bUdDiGQP-18" vertex="1" connectable="0">
          <mxGeometry x="-0.096" y="1" relative="1" as="geometry">
            <mxPoint as="offset" />
          </mxGeometry>
        </mxCell>
        <mxCell id="bDGak_FL8hJ-bUdDiGQP-20" value="Venda" style="rounded=0;whiteSpace=wrap;html=1;" parent="1" vertex="1">
          <mxGeometry x="600" y="253" width="120" height="60" as="geometry" />
        </mxCell>
        <mxCell id="bDGak_FL8hJ-bUdDiGQP-21" value="Portal" style="rounded=0;whiteSpace=wrap;html=1;" parent="1" vertex="1">
          <mxGeometry x="830" y="253" width="120" height="60" as="geometry" />
        </mxCell>
        <mxCell id="bDGak_FL8hJ-bUdDiGQP-23" value="" style="line;strokeWidth=2;direction=south;html=1;" parent="1" vertex="1">
          <mxGeometry x="650" y="313" width="10" height="170" as="geometry" />
        </mxCell>
        <mxCell id="bDGak_FL8hJ-bUdDiGQP-24" value="" style="endArrow=none;html=1;rounded=0;entryX=0.5;entryY=1;entryDx=0;entryDy=0;" parent="1" target="bDGak_FL8hJ-bUdDiGQP-21" edge="1">
          <mxGeometry width="50" height="50" relative="1" as="geometry">
            <mxPoint x="890" y="483" as="sourcePoint" />
            <mxPoint x="560" y="443" as="targetPoint" />
          </mxGeometry>
        </mxCell>
        <mxCell id="bDGak_FL8hJ-bUdDiGQP-25" value="" style="endArrow=classic;html=1;rounded=0;exitX=0.171;exitY=0.3;exitDx=0;exitDy=0;exitPerimeter=0;" parent="1" source="bDGak_FL8hJ-bUdDiGQP-23" edge="1">
          <mxGeometry width="50" height="50" relative="1" as="geometry">
            <mxPoint x="510" y="493" as="sourcePoint" />
            <mxPoint x="890" y="340" as="targetPoint" />
          </mxGeometry>
        </mxCell>
        <mxCell id="bDGak_FL8hJ-bUdDiGQP-26" value="Novo curso MSG" style="edgeLabel;html=1;align=center;verticalAlign=middle;resizable=0;points=[];" parent="bDGak_FL8hJ-bUdDiGQP-25" vertex="1" connectable="0">
          <mxGeometry x="0.2381" relative="1" as="geometry">
            <mxPoint as="offset" />
          </mxGeometry>
        </mxCell>
        <mxCell id="bDGak_FL8hJ-bUdDiGQP-27" value="JOB" style="whiteSpace=wrap;html=1;aspect=fixed;" parent="1" vertex="1">
          <mxGeometry x="910" y="353" width="50" height="50" as="geometry" />
        </mxCell>
        <mxCell id="bDGak_FL8hJ-bUdDiGQP-28" value="JOB" style="whiteSpace=wrap;html=1;aspect=fixed;" parent="1" vertex="1">
          <mxGeometry x="910" y="418" width="50" height="50" as="geometry" />
        </mxCell>
        <mxCell id="bDGak_FL8hJ-bUdDiGQP-29" value="" style="endArrow=classic;html=1;rounded=0;entryX=0.429;entryY=0.2;entryDx=0;entryDy=0;entryPerimeter=0;" parent="1" target="bDGak_FL8hJ-bUdDiGQP-23" edge="1">
          <mxGeometry width="50" height="50" relative="1" as="geometry">
            <mxPoint x="890" y="386" as="sourcePoint" />
            <mxPoint x="560" y="443" as="targetPoint" />
          </mxGeometry>
        </mxCell>
        <mxCell id="bDGak_FL8hJ-bUdDiGQP-31" value="REST" style="edgeLabel;html=1;align=center;verticalAlign=middle;resizable=0;points=[];" parent="bDGak_FL8hJ-bUdDiGQP-29" vertex="1" connectable="0">
          <mxGeometry x="-0.2414" y="-1" relative="1" as="geometry">
            <mxPoint as="offset" />
          </mxGeometry>
        </mxCell>
        <mxCell id="bDGak_FL8hJ-bUdDiGQP-30" value="" style="endArrow=classic;html=1;rounded=0;entryX=0.75;entryY=0.5;entryDx=0;entryDy=0;entryPerimeter=0;" parent="1" target="bDGak_FL8hJ-bUdDiGQP-23" edge="1">
          <mxGeometry width="50" height="50" relative="1" as="geometry">
            <mxPoint x="890" y="441" as="sourcePoint" />
            <mxPoint x="560" y="443" as="targetPoint" />
          </mxGeometry>
        </mxCell>
        <mxCell id="bDGak_FL8hJ-bUdDiGQP-32" value="REST" style="edgeLabel;html=1;align=center;verticalAlign=middle;resizable=0;points=[];" parent="bDGak_FL8hJ-bUdDiGQP-30" vertex="1" connectable="0">
          <mxGeometry x="-0.234" y="-1" relative="1" as="geometry">
            <mxPoint as="offset" />
          </mxGeometry>
        </mxCell>
        <mxCell id="bDGak_FL8hJ-bUdDiGQP-33" value="" style="endArrow=none;dashed=1;html=1;dashPattern=1 3;strokeWidth=2;rounded=0;" parent="1" edge="1">
          <mxGeometry width="50" height="50" relative="1" as="geometry">
            <mxPoint x="40" y="83" as="sourcePoint" />
            <mxPoint x="340" y="83" as="targetPoint" />
          </mxGeometry>
        </mxCell>
        <mxCell id="bDGak_FL8hJ-bUdDiGQP-36" value="Não tenanciado" style="edgeLabel;html=1;align=center;verticalAlign=middle;resizable=0;points=[];" parent="bDGak_FL8hJ-bUdDiGQP-33" vertex="1" connectable="0">
          <mxGeometry x="-0.1333" y="3" relative="1" as="geometry">
            <mxPoint as="offset" />
          </mxGeometry>
        </mxCell>
        <mxCell id="bDGak_FL8hJ-bUdDiGQP-34" value="" style="endArrow=none;dashed=1;html=1;dashPattern=1 3;strokeWidth=2;rounded=0;" parent="1" edge="1">
          <mxGeometry width="50" height="50" relative="1" as="geometry">
            <mxPoint x="340" y="120" as="sourcePoint" />
            <mxPoint x="640" y="120" as="targetPoint" />
          </mxGeometry>
        </mxCell>
        <mxCell id="bDGak_FL8hJ-bUdDiGQP-37" value="Tenanciado" style="edgeLabel;html=1;align=center;verticalAlign=middle;resizable=0;points=[];" parent="bDGak_FL8hJ-bUdDiGQP-34" vertex="1" connectable="0">
          <mxGeometry x="-0.1" y="-1" relative="1" as="geometry">
            <mxPoint x="-40" y="-37" as="offset" />
          </mxGeometry>
        </mxCell>
        <mxCell id="bDGak_FL8hJ-bUdDiGQP-35" value="" style="endArrow=none;dashed=1;html=1;dashPattern=1 3;strokeWidth=2;rounded=0;" parent="1" edge="1">
          <mxGeometry width="50" height="50" relative="1" as="geometry">
            <mxPoint x="340" y="643" as="sourcePoint" />
            <mxPoint x="340" y="83" as="targetPoint" />
          </mxGeometry>
        </mxCell>
        <mxCell id="PWyUlKmZXmek77OIaByV-1" value="" style="shape=flexArrow;endArrow=classic;startArrow=classic;html=1;rounded=0;entryX=0.5;entryY=1;entryDx=0;entryDy=0;" edge="1" parent="1" target="bDGak_FL8hJ-bUdDiGQP-4">
          <mxGeometry width="100" height="100" relative="1" as="geometry">
            <mxPoint x="510" y="503" as="sourcePoint" />
            <mxPoint x="580" y="403" as="targetPoint" />
          </mxGeometry>
        </mxCell>
      </root>
    </mxGraphModel>
  </diagram>
</mxfile>
